<svg xmlns="http://www.w3.org/2000/svg" viewBox="0 0 16 16" width="16" height="16"><path d="m6.335 6.904.896-3.024c.848.176 1.52.256 2.096.256 1.056 0 2-.336 2.528-.896.272-.32.432-.592.432-.8 0-.096-.048-.192-.112-.192-.048 0-.08.016-.176.064-.528.256-1.2.4-1.824.4-.96 0-2.096-.16-3.28-.464L5.439 7.384c-.496.304-.64.496-.64.816 0 .304.256.528.576.528.416 0 .656-.304.704-.896.496-.4 1.024-.576 1.664-.576 1.184 0 1.84.736 1.84 2.064 0 2.08-1.344 3.776-2.992 3.776-.944 0-1.712-.448-1.712-.976 0-.096.016-.128.096-.176.512-.24.928-.416.928-1.088 0-.512-.4-.896-.96-.896-.704 0-1.232.592-1.232 1.36 0 1.408 1.216 2.432 2.928 2.432 2.592 0 4.688-2.064 4.688-4.624 0-1.616-1.232-2.752-2.976-2.752-.688 0-1.248.144-2.016.528q0 0 0 0Z" stroke="#000" stroke-width=".5" stroke-linecap="round"/></svg>