<svg xmlns="http://www.w3.org/2000/svg" viewBox="0 0 16 16" width="16" height="16"><path d="M9.408 7.632c.752-.24 1.056-.368 1.44-.624a2.76 2.76 0 0 0 1.216-2.272c0-1.52-1.216-2.544-3.008-2.544-1.744 0-3.216 1.088-3.216 2.4 0 .656.4 1.104 1.008 1.104a.883.883 0 0 0 .912-.912c0-.272-.08-.464-.336-.72-.16-.144-.224-.256-.224-.368 0-.384.8-.784 1.552-.784 1.072 0 1.712.592 1.712 1.584 0 1.424-1.008 2.768-2.08 2.768-.048 0-.192-.016-.368-.032-.464-.032-.464-.032-.56-.032-.352 0-.544.16-.544.448 0 .256.176.416.464.416.08 0 .192-.016.32-.032.224-.048.464-.064.608-.064.752 0 1.264.672 1.264 1.664 0 1.728-.848 3.392-2.784 3.392-.896 0-1.664-.448-1.664-.96 0-.176.064-.24.32-.352.464-.208.656-.496.656-.928 0-.56-.448-.992-1.024-.992-.688 0-1.136.544-1.136 1.376 0 1.552 1.184 2.528 3.104 2.528 2.416 0 4.256-1.616 4.256-3.76 0-1.248-.768-1.952-1.888-2.304q0 0 0 0Z" stroke="#000" stroke-width=".5" stroke-linecap="round"/></svg>