<svg xmlns="http://www.w3.org/2000/svg" xmlns:xlink="http://www.w3.org/1999/xlink" viewBox="0 0 20 20"><g fill="none"><path d="M10,18c4.4,0,8-3.6,8-8s-3.6-8-8-8s-8,3.6-8,8S5.6,18,10,18z M11.5,8.6C11.4,8.9,11.1,9,10.9,9c-0.3-0.1-0.4-0.3-0.4-0.6v0 c0.1-0.2,0.2-0.5,0.3-0.7C11.2,7.2,11.7,7,12.3,7c0.6,0,1,0.2,1.3,0.6C13.9,7.9,14,8.3,14,8.8c0,0.3-0.1,0.6-0.2,0.9 c-0.1,0.3-0.3,0.4-0.5,0.6c-0.2,0.1-0.3,0.2-0.5,0.3l-0.1,0c-0.2,0.1-0.3,0.2-0.4,0.3c-0.4,0.3-0.7,0.7-0.8,1.1h1.9 c0.3,0,0.5,0.2,0.5,0.5S13.8,13,13.5,13H11c-0.3,0-0.5-0.2-0.5-0.5c0-1,0.5-1.8,1.2-2.4c0.2-0.2,0.4-0.3,0.6-0.4l0.1,0 c0.2-0.1,0.3-0.2,0.4-0.2c0.1-0.1,0.2-0.2,0.2-0.3C13,9.1,13,8.9,13,8.8c0-0.2-0.1-0.4-0.2-0.5C12.7,8.1,12.5,8,12.3,8 c-0.3,0-0.5,0.1-0.6,0.3C11.6,8.4,11.5,8.5,11.5,8.6L11.5,8.6z M6.5,7C6.8,7,7,7.2,7,7.5V10h1.5V7.5C8.5,7.2,8.7,7,9,7 s0.5,0.2,0.5,0.5v5C9.5,12.8,9.3,13,9,13s-0.5-0.2-0.5-0.5V11h-2C6.2,11,6,10.8,6,10.5v-3C6,7.2,6.2,7,6.5,7z" fill="currentColor"/></g></svg>