<svg width="16" height="16" viewBox="-5.416 -0.96 16 16" xmlns="http://www.w3.org/2000/svg"><path d="M5.168 4.544c0 .128-.112.256-.24.288l-.8.16V8.48l.688-.144c.016-.016.048-.016.064-.016.048 0 .144.032.176.064a.34.34 0 0 1 .112.24v1.248a.29.29 0 0 1-.24.272l-.8.176v3.088h-.592v-2.976l-1.888.384v3.264h-.592v-3.152l-.704.144c-.016.016-.032.016-.048.016H.288a.4.4 0 0 1-.176-.064A.34.34 0 0 1 0 10.8V9.568c0-.128.112-.256.24-.288l.816-.176V5.616l-.704.144a.4.4 0 0 1-.24-.064A.3.3 0 0 1 0 5.472V4.24c0-.128.112-.256.24-.288l.816-.176V.672h.592v2.992l1.888-.4V0h.592v3.152l.688-.144c.016 0 .048-.016.064-.016.048 0 .128.032.176.08a.3.3 0 0 1 .112.224zm-3.52.944 1.888-.384v3.488l-1.888.4z" fill-rule="evenodd"/></svg>